<?xml version="1.0" encoding="utf-8"?>
<!-- Generator: Adobe Illustrator 18.1.1, SVG Export Plug-In . SVG Version: 6.00 Build 0)  -->
<svg version="1.1" id="Layer_1" xmlns="http://www.w3.org/2000/svg" xmlns:xlink="http://www.w3.org/1999/xlink" x="0px" y="0px"
	 width="169px" height="169px" viewBox="0 0 169 169" style="enable-background:new 0 0 169 169;" xml:space="preserve">
<style type="text/css">
	.st0{fill:#3E2884;}
	.st1{fill:#FFFFFF;}
</style>
<rect id="background" class="st0" width="169" height="169"/>
<g id="logo">
	<path class="st1" d="M69.1,85.53c0,6.24,2.05,11.08,6.16,14.52c4.1,3.45,8.47,5.17,13.09,5.17c4.62,0,8.94-1.35,12.98-4.07
		c4.03-2.71,7.29-4.07,9.79-4.07c4.4,0,9.75,3.89,16.06,11.66c3.37,4.26,5.06,8.07,5.06,11.44c0,5.58-4.04,10.78-12.1,15.62
		c-8.36,5.87-18.63,8.8-30.8,8.8c-13.64,0-26.77-4.91-39.38-14.74c-6.02-4.69-10.93-10.96-14.74-18.81
		c-3.82-7.84-5.72-16.5-5.72-25.96s1.9-18.04,5.72-25.74c3.81-7.7,8.72-13.89,14.74-18.59c12.17-9.68,25.15-14.52,38.94-14.52
		c5.57,0,11,0.77,16.28,2.31c5.28,1.54,9.17,3.05,11.66,4.51l3.52,2.2c2.64,1.76,4.69,3.16,6.16,4.18
		c3.81,2.94,5.72,6.27,5.72,10.01c0,3.74-1.54,7.96-4.62,12.65c-5.28,8.07-10.34,12.1-15.18,12.1c-2.79,0-6.75-1.61-11.88-4.84
		c-2.64-2.49-6.42-3.74-11.33-3.74c-4.92,0-9.5,1.76-13.75,5.28C71.22,74.42,69.1,79.3,69.1,85.53z"/>
</g>
</svg>
